# AST/ASF file generated using VICON BodyLanguage
# -----------------------------------------------
:version 1.10
:name VICON
:units
  mass 1.0
  length 0.45
  angle deg
:documentation
   .ast/.asf automatically generated from VICON data using
   VICON BodyBuilder and BodyLanguage model FoxedUp or BRILLIANT.MOD
:root
   order TX TY TZ RX RY RZ
   axis XYZ
   position 0 0 0  
   orientation 0 0 0 
:bonedata
  begin
     id 1 
     name lhipjoint
     direction 0.584852 -0.759097 0.285867 
     length 2.43633 
     axis 0 0 0  XYZ
  end
  begin
     id 2 
     name lfemur
     direction 0.34202 -0.939693 0  
     length 7.14704  
     axis 0 0 20  XYZ
    dof rx ry rz
    limits (-160.0 20.0)
           (-70.0 70.0)
           (-60.0 70.0)
  end
  begin
     id 3 
     name ltibia
     direction 0.342022 -0.939692 0   
     length 7.68483   
     axis 0 0 20   XYZ
    dof rx
    limits (-10.0 170.0)
  end
  begin
     id 4 
     name lfoot
     direction 0.0999605 -0.274639 0.956337   
     length 2.40452   
     axis -90 7.62852e-016 20   XYZ
    dof rx rz
    limits (-45.0 90.0)
           (-70.0 20.0)
  end
  begin
     id 5 
     name ltoes
     direction 1.53468e-011 -4.21881e-011 1   
     length 1.19837   
     axis -90 7.62852e-016 20   XYZ
    dof rx
    limits (-90.0 20.0)
  end
  begin
     id 6 
     name rhipjoint
     direction -0.569886 -0.769002 0.289597   
     length 2.40495  
     axis 0 0 0  XYZ 
  end
  begin
     id 7 
     name rfemur
     direction -0.34202 -0.939693 0   
     length 7.45086   
     axis 0 0 -20   XYZ
    dof rx ry rz
    limits (-160.0 20.0)
           (-70.0 70.0)
           (-70.0 60.0)
  end
  begin
     id 8 
     name rtibia
     direction -0.34202 -0.939693 0   
     length 7.76831   
     axis 0 0 -20   XYZ
    dof rx
    limits (-10.0 170.0)
 end
 begin
     id 9 
     name rfoot
     direction -0.0798572 -0.219406 0.97236   
     length 2.35911  
     axis -90 -7.62852e-016 -20   XYZ
    dof rx rz
    limits (-45.0 90.0)
           (-20.0 70.0)
  end
  begin
     id 10 
     name rtoes
     direction -1.53469e-011 -4.21728e-011 1   
     length 1.18261   
     axis -90 -7.62852e-016 -20   XYZ
    dof rx
    limits (-90.0 20.0)
  end
  begin
     id 11 
     name lowerback
     direction 0.0242088 0.999437 0.0232389   
     length 2.1561   
     axis 0 0 0   XYZ
    dof rx ry rz
    limits (-20.0 45.0)
           (-30.0 30.0)
           (-30.0 30.0)
  end
  begin
     id 12 
     name upperback
     direction -0.0356893 0.999013 -0.0264323   
     length 2.14431   
     axis 0 0 0   XYZ
    dof rx ry rz
    limits (-20.0 45.0)
           (-30.0 30.0)
           (-30.0 30.0)
  end
  begin
     id 13 
     name thorax
     direction -0.0472163 0.998194 -0.0371284   
     length 2.16169   
     axis 0 0 0   XYZ
    dof rx ry rz
    limits (-20.0 45.0)
           (-30.0 30.0)
           (-30.0 30.0)
  end
  begin
     id 14 
     name lowerneck
     direction 0.00863244 0.999921 0.00911972   
     length 1.58651   
     axis 0 0 0   XYZ
    dof rx ry rz
    limits (-20.0 45.0)
           (-30.0 30.0)
           (-30.0 30.0)
  end
  begin
     id 15 
     name upperneck
     direction 0.149523 0.979068 -0.138086   
     length 1.57486   
     axis 0 0 0   XYZ
    dof rx ry rz
    limits (-20.0 45.0)
           (-30.0 30.0)
           (-30.0 30.0)
  end
  begin
     id 16
     name head
     direction 0.0445219 0.997708 -0.0509576  
     length 1.6019  
     axis 0 0 0   XYZ
    dof rx ry rz
    limits (-20.0 45.0)
           (-30.0 30.0)
           (-30.0 30.0)
  end
  begin
     id 17 
     name lclavicle
     direction 0.911271 0.381667 -0.154644  
     length 3.80848  
     axis 0 0 0   XYZ
    dof ry rz
    limits (-20.0 10.0)
           (0.0 20.0)
  end
  begin
     id 18 
     name lhumerus
     direction 1 -4.49003e-011 2.1308e-027   
     length 5.19069   
     axis 180 -30 -90   XYZ
    dof rx ry rz
    limits (-60.0 90.0)
           (-90.0 90.0)
           (-90.0 90.0)
  end
  begin
     id 19
     name lradius
     direction 1 -4.48914e-011 4.01554e-027   
     length 3.30016   
     axis 180 -30 -90   XYZ
    dof rx
    limits (-10.0 170.0)
  end
  begin
     id 20
     name lwrist
     direction 1 -4.49003e-011 1.1934e-026   
     length 1.65008   
     axis -8.46377e-015 90 90   XYZ
    dof ry
    limits (-180.0 0.0)
 end
  begin
     id 21 
     name lhand
     direction 1 -4.49034e-011 2.38659e-026   
     length 0.707698   
     axis -1.52313e-014 90 90   XYZ
    dof rx rz
    limits (-90.0 90.0)
           (-45.0 45.0)
  end
  begin
     id 22 
     name lfingers
     direction 1 -4.48691e-011 4.77775e-026   
     length 0.570564   
     axis -3.04623e-014 90 90   XYZ
    dof rx
    limits (0.0 90.0)
  end
  begin
     id 23
     name lthumb
     direction 0.707107 -6.34832e-011 0.707107   
     length 0.819219   
     axis -90 45 -1.62303e-014   XYZ
    dof rx rz
    limits (-45.0 45.0)
           (-45.0 45.0)
  end
  begin
     id 24 
     name rclavicle
     direction -0.815579 0.573708 -0.0754329   
     length 3.54371  
     axis 0 0 0   XYZ 
    dof ry rz
    limits (-10.0 20.0)
           (-20.0 0.0)
  end
  begin
     id 25 
     name rhumerus
     direction -1 -4.48956e-011 3.05351e-028  
     length 5.23924   
     axis 180 30 90   XYZ
    dof rx ry rz
    limits (-90.0 60.0)
           (-90.0 90.0)
           (-90.0 90.0)
  end
  begin
     id 26 
     name rradius
     direction -1 -4.49013e-011 3.53849e-027   
     length 3.32953   
     axis 180 30 90   XYZ
    dof rx
    limits (-10.0 170.0)
  end
  begin
     id 27 
     name rwrist
     direction -1 -4.48901e-011 1.19374e-026   
     length 1.66477   
     axis -8.46377e-015 -90 -90   XYZ
    dof ry
    limits (-180.0 0.0)
  end
  begin
     id 28
     name rhand
     direction -1 -4.48877e-011 2.38764e-026   
     length 0.607414   
     axis -1.52313e-014 -90 -90   XYZ
    dof rx rz
    limits (-90.0 90.0)
           (-45.0 45.0)
  end
  begin
     id 29
     name rfingers
     direction -1 -4.48882e-011 4.77521e-026   
     length 0.489712   
     axis -3.04623e-014 -90 -90   XYZ
    dof rx
    limits (0.0 90.0)
  end
  begin
     id 30
     name rthumb
     direction -0.707107 -6.34974e-011 0.707107   
     length 0.703132   
     axis -90 -45 1.62303e-014   XYZ
    dof rx rz
    limits (-45.0 45.0)
           (-45.0 45.0)
  end
:hierarchy
  begin
    root lhipjoint rhipjoint lowerback
    lhipjoint lfemur
    lfemur ltibia
    ltibia lfoot
    lfoot ltoes
    rhipjoint rfemur
    rfemur rtibia
    rtibia rfoot
    rfoot rtoes
    lowerback upperback
    upperback thorax
    thorax lowerneck lclavicle rclavicle
    lowerneck upperneck
    upperneck head
    lclavicle lhumerus
    lhumerus lradius
    lradius lwrist
    lwrist lhand lthumb
    lhand lfingers
    rclavicle rhumerus
    rhumerus rradius
    rradius rwrist
    rwrist rhand rthumb
    rhand rfingers
  end

#!OML:ASF E:\VariousWalksJay\Project 1\Capture day 1\Session 1\Actor2.ASF
:FULLY-SPECIFIED
:DEGREES
48
root 3.45681 17.1595 2.35412 1.56878 1.40117 -9.54984
lowerback -0.0766459 -2.96654 12.5006
upperback 4.57947 -4.34843 1.52257
thorax 4.09868 -1.72938 -5.49801
lowerneck 0.946143 -14.4333 -13.6653
upperneck 0.386095 -20.4034 23.4533
head 3.9224 -10.1548 8.16544
rclavicle -9.2733e-014 5.14852e-014
rhumerus -23.7654 4.82998 -87.1641
rradius 30.6858
rwrist -0.230981
rhand -13.7921 -7.26695
rfingers 7.12502
rthumb 12.3296 -36.8834
lclavicle -9.2733e-014 5.14852e-014
lhumerus -22.9901 5.80757 80.5741
lradius 23.2218
lwrist 3.38139
lhand -9.76889 -5.4412
lfingers 7.12502
lthumb 16.2062 23.9014
rfemur -18.5303 1.81533 31.5358
rtibia 38.1133
rfoot -20.1 -5.13897
rtoes 3.6551
lfemur -11.3177 11.4978 -4.33552
ltibia 46.9286
lfoot -24.563 9.53218
ltoes -19.4132
49
root 3.45838 17.1592 2.35542 1.60415 1.40946 -9.56265
lowerback -0.141194 -2.96336 12.5451
upperback 4.55258 -4.354 1.54862
thorax 4.10529 -1.73159 -5.49812
lowerneck 0.864523 -14.3971 -13.6408
upperneck 0.492843 -20.3565 23.3693
head 3.94548 -10.1221 8.13389
rclavicle -2.00773e-014 7.15625e-015
rhumerus -23.7595 4.86567 -87.135
rradius 30.6786
rwrist -0.237898
rhand -13.8344 -7.24563
rfingers 7.12502
rthumb 12.2887 -36.8645
lclavicle -2.00773e-014 7.15625e-015
lhumerus -23.0254 5.75775 80.644
lradius 23.2079
lwrist 3.37824
lhand -9.75104 -5.43978
lfingers 7.12502
lthumb 16.2234 23.9014
rfemur -18.5675 1.85364 31.5434
rtibia 38.1229
rfoot -20.1154 -5.16984
rtoes 3.64946
lfemur -11.1944 11.4464 -4.40847
ltibia 46.8595
lfoot -24.3588 9.60034
ltoes -19.7293
50
root 3.46061 17.159 2.35669 1.64366 1.40734 -9.573
lowerback -0.207 -2.95773 12.5808
upperback 4.52345 -4.35614 1.57416
thorax 4.11125 -1.73255 -5.49392
lowerneck 0.776398 -14.3584 -13.613
upperneck 0.604658 -20.3062 23.2826
head 3.96992 -10.0872 8.10098
rclavicle 1.19271e-014 3.33958e-014
rhumerus -23.7607 4.89542 -87.1069
rradius 30.6674
rwrist -0.242497
rhand -13.8719 -7.22654
rfingers 7.12502
rthumb 12.2527 -36.8476
lclavicle 1.19271e-014 3.33958e-014
lhumerus -23.0616 5.71804 80.7113
lradius 23.1805
lwrist 3.36586
lhand -9.7352 -5.44311
lfingers 7.12502
lthumb 16.2386 23.8968
rfemur -18.6101 1.90251 31.5464
rtibia 38.1355
rfoot -20.1301 -5.20443
rtoes 3.63094
lfemur -11.058 11.3752 -4.49355
ltibia 46.7062
lfoot -24.2422 9.70611
ltoes -20.0474
51
root 3.46344 17.1587 2.35786 1.68633 1.39533 -9.57825
lowerback -0.272634 -2.94996 12.6049
upperback 4.49266 -4.35496 1.59811
thorax 4.1164 -1.7324 -5.48501
lowerneck 0.683845 -14.3171 -13.5833
upperneck 0.71879 -20.2524 23.1966
head 3.99509 -10.0502 8.06812
rclavicle 1.44616e-014 -2.8625e-014
rhumerus -23.7672 4.91671 -87.0805
rradius 30.6492
rwrist -0.241103
rhand -13.905 -7.21028
rfingers 7.12502
rthumb 12.2207 -36.8333
lclavicle 1.44616e-014 -2.8625e-014
lhumerus -23.0974 5.6882 80.7749
lradius 23.14
lwrist 3.34509
lhand -9.72184 -5.45145
lfingers 7.12502
lthumb 16.2515 23.8874
rfemur -18.6581 1.96188 31.542
rtibia 38.153
rfoot -20.145 -5.24392
rtoes 3.59797
lfemur -10.9083 11.287 -4.59284
ltibia 46.4747
lfoot -24.2202 9.85522
ltoes -20.3306
52
root 3.46682 17.1583 2.35887 1.7311 1.37456 -9.57648
lowerback -0.336852 -2.94063 12.6157
upperback 4.46089 -4.35098 1.61959
thorax 4.12072 -1.73141 -5.4712
lowerneck 0.588663 -14.2736 -13.5532
upperneck 0.832704 -20.1955 23.1141
head 4.02057 -10.0117 8.03657
rclavicle 1.23743e-014 -2.72335e-014
rhumerus -23.7769 4.92721 -87.0563
rradius 30.6211
rwrist -0.230688
rhand -13.9346 -7.19666
rfingers 7.12502
rthumb 12.1921 -36.8213
lclavicle 1.23743e-014 -2.72335e-014
lhumerus -23.1315 5.66841 80.8338
lradius 23.0868
lwrist 3.31634
lhand -9.7111 -5.46511
lfingers 7.12502
lthumb 16.2618 23.8729
rfemur -18.7111 2.03099 31.5285
rtibia 38.1765
rfoot -20.1605 -5.28943
rtoes 3.54943
lfemur -10.7454 11.1846 -4.7075
ltibia 46.1749
lfoot -24.2892 10.0496
ltoes -20.5481
53
root 3.47071 17.1579 2.35964 1.77704 1.34667 -9.56677
lowerback -0.398829 -2.93038 12.6123
upperback 4.42877 -4.3449 1.638
thorax 4.12427 -1.72991 -5.45273
lowerneck 0.493225 -14.2281 -13.5243
upperneck 0.943403 -20.1361 23.038
head 4.0457 -9.97204 8.00767
rclavicle 1.66731e-014 -3.39922e-014
rhumerus -23.7878 4.92435 -87.0345
rradius 30.5804
rwrist -0.208663
rhand -13.9614 -7.18502
rfingers 7.12502
rthumb 12.1663 -36.8112
lclavicle 1.66731e-014 -3.39922e-014
lhumerus -23.1629 5.6579 80.8874
lradius 23.022
lwrist 3.2807
lhand -9.70267 -5.48264
lfingers 7.12502
lthumb 16.27 23.8547
rfemur -18.7689 2.10849 31.505
rtibia 38.2063
rfoot -20.1769 -5.34195
rtoes 3.48394
lfemur -10.5698 11.0709 -4.8376
ltibia 45.8195
lfoot -24.4376 10.2875
ltoes -20.6806
